<svg width="40" height="40" viewBox="0 0 40 40" fill="none" xmlns="http://www.w3.org/2000/svg">
<path d="M30.8336 36.2137C27.6269 38.3563 23.8567 39.5 20 39.5C14.8283 39.5 9.86837 37.4455 6.21142 33.7886C2.55446 30.1316 0.5 25.1717 0.5 20C0.5 16.1433 1.64365 12.3731 3.78634 9.16639C5.92903 5.95963 8.97451 3.46027 12.5377 1.98436C16.1008 0.508449 20.0216 0.122284 23.8043 0.874696C27.5869 1.62711 31.0615 3.4843 33.7886 6.21142C36.5157 8.93855 38.3729 12.4131 39.1253 16.1957C39.8777 19.9784 39.4916 23.8992 38.0156 27.4623C36.5397 31.0255 34.0404 34.071 30.8336 36.2137Z" fill="white" stroke="#181818"/>
<path d="M23.2554 14.2193C22.9231 14.1566 22.5848 14.1229 22.245 14.1188L22.245 14.1188H22.239C21.8741 14.1188 21.3487 14.2277 20.9047 14.4352C20.6802 14.5402 20.4473 14.6836 20.2643 14.8772C20.077 15.0754 19.925 15.3461 19.925 15.6814V17.3587V17.8587H20.425H22.868V19.6814H20.425H19.925V20.1814V27.4775H17.96V20.1841V19.6841H17.46H16.5V17.8614H17.46H17.96V17.3614V15.9355C17.96 14.9329 18.199 14.0731 18.6691 13.475C19.1247 12.8954 19.8405 12.5055 20.934 12.5055H20.9415L20.949 12.5053C21.8139 12.4793 22.6783 12.5489 23.5233 12.7119L23.2554 14.2193Z" fill="#181818" stroke="#181818"/>
</svg>
