<svg width="48" height="39" viewBox="0 0 48 39" fill="none" xmlns="http://www.w3.org/2000/svg">
<rect width="48" height="39" rx="4" fill="white"/>
<path fill-rule="evenodd" clip-rule="evenodd" d="M45.1765 0H2.82353C1.26414 0 0 1.24721 0 2.78571V36.2143C0 37.7528 1.26414 39 2.82353 39H45.1765C46.7359 39 48 37.7528 48 36.2143V2.78571C48 1.24721 46.7359 0 45.1765 0ZM2.82353 36.2143V2.78571H45.1765V36.2143H2.82353Z" fill="#202020"/>
<path fill-rule="evenodd" clip-rule="evenodd" d="M7.76465 11.4911C7.76465 14.3758 10.1349 16.7143 13.0588 16.7143C15.9826 16.7143 18.3529 14.3758 18.3529 11.4911C18.3529 8.60637 15.9826 6.26785 13.0588 6.26785C10.1349 6.26785 7.76465 8.60637 7.76465 11.4911ZM15.5294 11.4911C15.5294 12.8373 14.4232 13.9286 13.0588 13.9286C11.6943 13.9286 10.5882 12.8373 10.5882 11.4911C10.5882 10.1449 11.6943 9.05357 13.0588 9.05357C14.4232 9.05357 15.5294 10.1449 15.5294 11.4911Z" fill="#202020"/>
<path d="M10.1704 33.0249C9.61665 33.5664 8.72278 33.5626 8.17384 33.0163C7.6249 32.4701 7.62876 31.5882 8.18247 31.0466L19.7938 19.6894L26.3382 25.3055C26.9265 25.8103 26.9886 26.6901 26.4769 27.2705C25.9652 27.8509 25.0735 27.9122 24.4852 27.4074L19.9194 23.4892L10.1704 33.0249Z" fill="#202020"/>
<path d="M20.7631 33.0206C20.2118 33.5646 19.3179 33.5646 18.7666 33.0207C18.2152 32.4767 18.2152 31.5948 18.7665 31.0509L37.3472 12.7174L47.5194 21.5233C48.1055 22.0306 48.1637 22.9107 47.6495 23.4889C47.1353 24.0671 46.2433 24.1246 45.6572 23.6172L37.4734 16.5326L20.7631 33.0206Z" fill="#202020"/>
</svg>
