<svg width="40" height="40" viewBox="0 0 40 40" fill="none" xmlns="http://www.w3.org/2000/svg">
<path d="M30.8336 36.2137C27.6269 38.3563 23.8567 39.5 20 39.5C14.8283 39.5 9.86837 37.4455 6.21142 33.7886C2.55446 30.1316 0.5 25.1717 0.5 20C0.5 16.1433 1.64365 12.3731 3.78634 9.16639C5.92903 5.95963 8.97451 3.46027 12.5377 1.98436C16.1008 0.508449 20.0216 0.122284 23.8043 0.874696C27.5869 1.62711 31.0615 3.4843 33.7886 6.21142C36.5157 8.93855 38.3729 12.4131 39.1253 16.1957C39.8777 19.9784 39.4916 23.8992 38.0156 27.4623C36.5397 31.0255 34.0404 34.071 30.8336 36.2137Z" fill="white" stroke="#181818"/>
<mask id="path-2-inside-1_222_4492" fill="white">
<path d="M25.656 12H14.344C13.7226 12.0008 13.1268 12.248 12.6874 12.6874C12.248 13.1268 12.0008 13.7226 12 14.344V25.656C12.0005 26.2775 12.2477 26.8734 12.6871 27.3129C13.1266 27.7523 13.7225 27.9995 14.344 28H25.656C26.2775 27.9995 26.8734 27.7523 27.3129 27.3129C27.7523 26.8734 27.9995 26.2775 28 25.656V14.344C27.9995 13.7225 27.7523 13.1266 27.3129 12.6871C26.8734 12.2477 26.2775 12.0005 25.656 12ZM27.062 25.656C27.0615 26.0287 26.9132 26.386 26.6496 26.6496C26.386 26.9132 26.0287 27.0615 25.656 27.062H14.344C13.9713 27.0615 13.614 26.9132 13.3504 26.6496C13.0868 26.386 12.9385 26.0287 12.938 25.656V14.344C12.9385 13.9713 13.0868 13.614 13.3504 13.3504C13.614 13.0868 13.9713 12.9385 14.344 12.938H25.656C26.0287 12.9385 26.386 13.0868 26.6496 13.3504C26.9132 13.614 27.0615 13.9713 27.062 14.344V25.656Z"/>
</mask>
<path d="M25.656 12H14.344C13.7226 12.0008 13.1268 12.248 12.6874 12.6874C12.248 13.1268 12.0008 13.7226 12 14.344V25.656C12.0005 26.2775 12.2477 26.8734 12.6871 27.3129C13.1266 27.7523 13.7225 27.9995 14.344 28H25.656C26.2775 27.9995 26.8734 27.7523 27.3129 27.3129C27.7523 26.8734 27.9995 26.2775 28 25.656V14.344C27.9995 13.7225 27.7523 13.1266 27.3129 12.6871C26.8734 12.2477 26.2775 12.0005 25.656 12ZM27.062 25.656C27.0615 26.0287 26.9132 26.386 26.6496 26.6496C26.386 26.9132 26.0287 27.0615 25.656 27.062H14.344C13.9713 27.0615 13.614 26.9132 13.3504 26.6496C13.0868 26.386 12.9385 26.0287 12.938 25.656V14.344C12.9385 13.9713 13.0868 13.614 13.3504 13.3504C13.614 13.0868 13.9713 12.9385 14.344 12.938H25.656C26.0287 12.9385 26.386 13.0868 26.6496 13.3504C26.9132 13.614 27.0615 13.9713 27.062 14.344V25.656Z" fill="#181818"/>
<path d="M25.656 12L25.6569 11H25.656V12ZM14.344 12V11L14.3427 11L14.344 12ZM12 14.344L11 14.3427V14.344H12ZM12 25.656H11L11 25.6569L12 25.656ZM14.344 28L14.3431 29H14.344V28ZM25.656 28V29H25.6569L25.656 28ZM28 25.656L29 25.6569V25.656H28ZM28 14.344H29V14.3431L28 14.344ZM27.062 25.656L28.062 25.6574V25.656H27.062ZM25.656 27.062V28.062L25.6574 28.062L25.656 27.062ZM14.344 27.062L14.3426 28.062H14.344V27.062ZM12.938 25.656H11.938L11.938 25.6574L12.938 25.656ZM12.938 14.344L11.938 14.3426V14.344H12.938ZM14.344 12.938V11.938L14.3426 11.938L14.344 12.938ZM25.656 12.938L25.6574 11.938H25.656V12.938ZM27.062 14.344H28.062L28.062 14.3426L27.062 14.344ZM25.656 11H14.344V13H25.656V11ZM14.3427 11C13.4565 11.0011 12.6069 11.3537 11.9803 11.9803L13.3945 13.3945C13.6467 13.1423 13.9886 13.0005 14.3453 13L14.3427 11ZM11.9803 11.9803C11.3537 12.6069 11.0011 13.4565 11 14.3427L13 14.3453C13.0005 13.9886 13.1423 13.6467 13.3945 13.3945L11.9803 11.9803ZM11 14.344V25.656H13V14.344H11ZM11 25.6569C11.0008 26.5433 11.3532 27.3932 11.98 28.02L13.3942 26.6058C13.1421 26.3536 13.0003 26.0117 13 25.6551L11 25.6569ZM11.98 28.02C12.6068 28.6468 13.4567 28.9992 14.3431 29L14.3449 27C13.9883 26.9997 13.6464 26.8579 13.3942 26.6058L11.98 28.02ZM14.344 29H25.656V27H14.344V29ZM25.6569 29C26.5433 28.9992 27.3932 28.6468 28.02 28.02L26.6058 26.6058C26.3536 26.8579 26.0117 26.9997 25.6551 27L25.6569 29ZM28.02 28.02C28.6468 27.3932 28.9992 26.5433 29 25.6569L27 25.6551C26.9997 26.0117 26.8579 26.3536 26.6058 26.6058L28.02 28.02ZM29 25.656V14.344H27V25.656H29ZM29 14.3431C28.9992 13.4567 28.6468 12.6068 28.02 11.98L26.6058 13.3942C26.8579 13.6464 26.9997 13.9883 27 14.3449L29 14.3431ZM28.02 11.98C27.3932 11.3532 26.5433 11.0008 25.6569 11L25.6551 13C26.0117 13.0003 26.3536 13.1421 26.6058 13.3942L28.02 11.98ZM26.062 25.6546C26.0618 25.7626 26.0189 25.8661 25.9425 25.9425L27.3567 27.3567C27.8075 26.906 28.0611 26.2949 28.062 25.6574L26.062 25.6546ZM25.9425 25.9425C25.8661 26.0189 25.7626 26.0618 25.6546 26.062L25.6574 28.062C26.2949 28.0611 26.906 27.8075 27.3567 27.3567L25.9425 25.9425ZM25.656 26.062H14.344V28.062H25.656V26.062ZM14.3454 26.062C14.2374 26.0618 14.1339 26.0189 14.0575 25.9425L12.6433 27.3567C13.094 27.8075 13.7051 28.0611 14.3426 28.062L14.3454 26.062ZM14.0575 25.9425C13.9811 25.8661 13.9382 25.7626 13.938 25.6546L11.938 25.6574C11.9389 26.2949 12.1925 26.906 12.6433 27.3567L14.0575 25.9425ZM13.938 25.656V14.344H11.938V25.656H13.938ZM13.938 14.3454C13.9382 14.2374 13.9811 14.1339 14.0575 14.0575L12.6433 12.6433C12.1925 13.094 11.9389 13.7051 11.938 14.3426L13.938 14.3454ZM14.0575 14.0575C14.1339 13.9811 14.2374 13.9382 14.3454 13.938L14.3426 11.938C13.7051 11.9389 13.094 12.1925 12.6433 12.6433L14.0575 14.0575ZM14.344 13.938H25.656V11.938H14.344V13.938ZM25.6546 13.938C25.7626 13.9382 25.8661 13.9811 25.9425 14.0575L27.3567 12.6433C26.906 12.1925 26.2949 11.9389 25.6574 11.938L25.6546 13.938ZM25.9425 14.0575C26.0189 14.1339 26.0618 14.2374 26.062 14.3454L28.062 14.3426C28.0611 13.7051 27.8075 13.094 27.3567 12.6433L25.9425 14.0575ZM26.062 14.344V25.656H28.062V14.344H26.062Z" fill="#181818" mask="url(#path-2-inside-1_222_4492)"/>
<path d="M24.9181 14.4798C24.9898 14.4308 25.0727 14.4053 25.1565 14.4053C25.2687 14.4055 25.3787 14.4511 25.4619 14.5363C25.5454 14.6219 25.5946 14.7405 25.5948 14.8667C25.5947 14.9605 25.5675 15.0512 25.5178 15.1274C25.4683 15.2034 25.399 15.2608 25.3204 15.2942C25.2418 15.3275 25.1561 15.3361 25.0736 15.3192C24.991 15.3024 24.9134 15.2605 24.8513 15.1969C24.7891 15.1332 24.7454 15.0505 24.7276 14.9587C24.7098 14.8669 24.719 14.7718 24.7537 14.686C24.7883 14.6003 24.8462 14.5291 24.9181 14.4798Z" fill="#181818" stroke="#181818"/>
<mask id="path-5-inside-2_222_4492" fill="white">
<path d="M20.0002 15.791C19.1658 15.791 18.3501 16.038 17.6563 16.5008C16.9625 16.9636 16.4217 17.6213 16.1024 18.3909C15.7831 19.1605 15.6995 20.0073 15.8623 20.8243C16.0251 21.6412 16.4269 22.3917 17.017 22.9807C17.607 23.5697 18.3588 23.9708 19.1772 24.1333C19.9956 24.2958 20.8439 24.2124 21.6148 23.8936C22.3857 23.5749 23.0446 23.035 23.5082 22.3425C23.9718 21.6499 24.2192 20.8356 24.2192 20.0026C24.2182 18.886 23.7733 17.8153 22.9824 17.0257C22.1914 16.2361 21.1189 15.7921 20.0002 15.791V15.791ZM20.0002 23.2779C19.3513 23.2779 18.717 23.0858 18.1774 22.7259C17.6379 22.366 17.2173 21.8545 16.969 21.256C16.7207 20.6575 16.6557 19.999 16.7823 19.3636C16.9089 18.7283 17.2214 18.1447 17.6802 17.6867C18.1391 17.2286 18.7237 16.9167 19.3602 16.7903C19.9966 16.6639 20.6563 16.7288 21.2558 16.9767C21.8554 17.2246 22.3678 17.6444 22.7283 18.183C23.0888 18.7216 23.2812 19.3548 23.2812 20.0026C23.2802 20.8709 22.9342 21.7034 22.3191 22.3174C21.704 22.9314 20.8701 23.2768 20.0002 23.2779Z"/>
</mask>
<path d="M20.0002 15.791C19.1658 15.791 18.3501 16.038 17.6563 16.5008C16.9625 16.9636 16.4217 17.6213 16.1024 18.3909C15.7831 19.1605 15.6995 20.0073 15.8623 20.8243C16.0251 21.6412 16.4269 22.3917 17.017 22.9807C17.607 23.5697 18.3588 23.9708 19.1772 24.1333C19.9956 24.2958 20.8439 24.2124 21.6148 23.8936C22.3857 23.5749 23.0446 23.035 23.5082 22.3425C23.9718 21.6499 24.2192 20.8356 24.2192 20.0026C24.2182 18.886 23.7733 17.8153 22.9824 17.0257C22.1914 16.2361 21.1189 15.7921 20.0002 15.791V15.791ZM20.0002 23.2779C19.3513 23.2779 18.717 23.0858 18.1774 22.7259C17.6379 22.366 17.2173 21.8545 16.969 21.256C16.7207 20.6575 16.6557 19.999 16.7823 19.3636C16.9089 18.7283 17.2214 18.1447 17.6802 17.6867C18.1391 17.2286 18.7237 16.9167 19.3602 16.7903C19.9966 16.6639 20.6563 16.7288 21.2558 16.9767C21.8554 17.2246 22.3678 17.6444 22.7283 18.183C23.0888 18.7216 23.2812 19.3548 23.2812 20.0026C23.2802 20.8709 22.9342 21.7034 22.3191 22.3174C21.704 22.9314 20.8701 23.2768 20.0002 23.2779Z" fill="#181818"/>
<path d="M20.0002 15.791V16.791H21.0002V15.791H20.0002ZM24.2192 20.0026H25.2192L25.2192 20.0017L24.2192 20.0026ZM20.0002 15.791L20.0012 14.791L19.0002 14.7901V15.791H20.0002ZM20.0002 23.2779V24.2779L20.0015 24.2779L20.0002 23.2779ZM23.2812 20.0026L24.2812 20.0038V20.0026H23.2812ZM20.0002 14.791C18.9684 14.791 17.9596 15.0964 17.1014 15.6689L18.2112 17.3327C18.7406 16.9796 19.3632 16.791 20.0002 16.791V14.791ZM17.1014 15.6689C16.2432 16.2413 15.574 17.0552 15.1788 18.0076L17.026 18.7742C17.2695 18.1875 17.6818 17.6858 18.2112 17.3327L17.1014 15.6689ZM15.1788 18.0076C14.7835 18.9602 14.6801 20.0084 14.8816 21.0197L16.843 20.6288C16.719 20.0062 16.7826 19.3608 17.026 18.7742L15.1788 18.0076ZM14.8816 21.0197C15.0831 22.031 15.5805 22.9596 16.3105 23.6884L17.7235 22.2729C17.2734 21.8237 16.9671 21.2515 16.843 20.6288L14.8816 21.0197ZM16.3105 23.6884C17.0405 24.4171 17.9703 24.9132 18.9824 25.1141L19.3719 23.1524C18.7472 23.0284 18.1735 22.7222 17.7235 22.2729L16.3105 23.6884ZM18.9824 25.1141C19.9944 25.3151 21.0435 25.212 21.9969 24.8177L21.2327 22.9695C20.6443 23.2128 19.9967 23.2765 19.3719 23.1524L18.9824 25.1141ZM21.9969 24.8177C22.9503 24.4235 23.7655 23.7558 24.3392 22.8987L22.6772 21.7862C22.3237 22.3143 21.8211 22.7262 21.2327 22.9695L21.9969 24.8177ZM24.3392 22.8987C24.9129 22.0416 25.2192 21.0338 25.2192 20.0026H23.2192C23.2192 20.6374 23.0307 21.2581 22.6772 21.7862L24.3392 22.8987ZM25.2192 20.0017C25.2179 18.6196 24.6673 17.2948 23.6888 16.318L22.2759 17.7335C22.8794 18.3359 23.2184 19.1524 23.2192 20.0036L25.2192 20.0017ZM23.6888 16.318C22.7104 15.3413 21.3841 14.7923 20.0012 14.791L19.9993 16.791C20.8536 16.7918 21.6723 17.131 22.2759 17.7335L23.6888 16.318ZM19.0002 15.791V15.791H21.0002V15.791H19.0002ZM20.0002 22.2779C19.5487 22.2779 19.1075 22.1442 18.7323 21.894L17.6225 23.5578C18.3265 24.0273 19.1539 24.2779 20.0002 24.2779V22.2779ZM18.7323 21.894C18.3572 21.6437 18.0651 21.2883 17.8926 20.8727L16.0454 21.6393C16.3696 22.4207 16.9185 23.0882 17.6225 23.5578L18.7323 21.894ZM17.8926 20.8727C17.7202 20.4572 17.6751 20.0001 17.763 19.5591L15.8016 19.1682C15.6363 19.9979 15.7211 20.8578 16.0454 21.6393L17.8926 20.8727ZM17.763 19.5591C17.8509 19.118 18.0678 18.7127 18.3867 18.3944L16.9737 16.9789C16.3749 17.5767 15.9669 18.3386 15.8016 19.1682L17.763 19.5591ZM18.3867 18.3944C18.7056 18.0761 19.1121 17.8591 19.5549 17.7712L19.1654 15.8095C18.3353 15.9743 17.5726 16.3812 16.9737 16.9789L18.3867 18.3944ZM19.5549 17.7712C19.9977 17.6832 20.4567 17.7284 20.8737 17.9008L21.6379 16.0526C20.8559 15.7292 19.9955 15.6446 19.1654 15.8095L19.5549 17.7712ZM20.8737 17.9008C21.2907 18.0732 21.6468 18.3651 21.8973 18.7392L23.5593 17.6267C23.0887 16.9237 22.42 16.3759 21.6379 16.0526L20.8737 17.9008ZM21.8973 18.7392C22.1477 19.1133 22.2812 19.553 22.2812 20.0026H24.2812C24.2812 19.1567 24.0299 18.3298 23.5593 17.6267L21.8973 18.7392ZM22.2812 20.0014C22.2805 20.6044 22.0402 21.1828 21.6126 21.6097L23.0256 23.0251C23.8281 22.224 24.2799 21.1375 24.2812 20.0038L22.2812 20.0014ZM21.6126 21.6097C21.1849 22.0366 20.6046 22.2771 19.999 22.2779L20.0015 24.2779C21.1355 24.2765 22.2231 23.8262 23.0256 23.0251L21.6126 21.6097Z" fill="#181818" mask="url(#path-5-inside-2_222_4492)"/>
</svg>
