<svg width="40" height="40" viewBox="0 0 40 40" fill="none" xmlns="http://www.w3.org/2000/svg">
<path d="M30.8336 36.2137C27.6269 38.3563 23.8567 39.5 20 39.5C14.8283 39.5 9.86837 37.4455 6.21142 33.7886C2.55446 30.1316 0.5 25.1717 0.5 20C0.5 16.1433 1.64365 12.3731 3.78634 9.16639C5.92903 5.95963 8.97451 3.46027 12.5377 1.98436C16.1008 0.508449 20.0216 0.122284 23.8043 0.874696C27.5869 1.62711 31.0615 3.4843 33.7886 6.21142C36.5157 8.93855 38.3729 12.4131 39.1253 16.1957C39.8777 19.9784 39.4916 23.8992 38.0156 27.4623C36.5397 31.0255 34.0404 34.071 30.8336 36.2137Z" fill="white" stroke="#181818"/>
<path d="M15.5818 28H12.2646V17.3177H15.5818V28ZM13.9212 15.8606C12.8606 15.8606 12 14.9817 12 13.9211C12 13.4116 12.2024 12.923 12.5627 12.5627C12.923 12.2024 13.4117 12 13.9212 12C14.4307 12 14.9194 12.2024 15.2797 12.5627C15.64 12.923 15.8424 13.4116 15.8424 13.9211C15.8424 14.9817 14.9818 15.8606 13.9212 15.8606ZM27.9971 28H24.6873V22.8C24.6873 21.5606 24.6622 19.9714 22.9627 19.9714C21.238 19.9714 20.9735 21.3177 20.9735 22.7109V28H17.6596V17.3177H20.8409V18.7749H20.8872C21.33 17.9354 22.4118 17.0497 24.0256 17.0497C27.3828 17.0497 28 19.2606 28 22.132V28H27.9971Z" fill="#181818"/>
</svg>
