<svg width="40" height="40" viewBox="0 0 40 40" fill="none" xmlns="http://www.w3.org/2000/svg">
<path d="M30.8336 36.2137C27.6269 38.3563 23.8567 39.5 20 39.5C14.8283 39.5 9.86837 37.4455 6.21142 33.7886C2.55446 30.1316 0.5 25.1717 0.5 20C0.5 16.1433 1.64365 12.3731 3.78634 9.16639C5.92903 5.95963 8.97451 3.46027 12.5377 1.98436C16.1008 0.508449 20.0216 0.122284 23.8043 0.874696C27.5869 1.62711 31.0615 3.4843 33.7886 6.21142C36.5157 8.93855 38.3729 12.4131 39.1253 16.1957C39.8777 19.9784 39.4916 23.8992 38.0156 27.4623C36.5397 31.0255 34.0404 34.071 30.8336 36.2137Z" fill="white" stroke="#181818"/>
<path d="M20.0644 13H20.1756C21.2032 13.0037 26.4098 13.0411 27.8136 13.4173C28.238 13.5321 28.6247 13.7559 28.9351 14.0663C29.2455 14.3767 29.4688 14.7628 29.5825 15.1861C29.7087 15.6595 29.7975 16.2861 29.8575 16.9326L29.87 17.0621L29.8975 17.386L29.9075 17.5155C29.9888 18.6541 29.9988 19.7203 30 19.9533V20.0467C29.9988 20.2884 29.9875 21.4269 29.8975 22.6128L29.8875 22.7436L29.8762 22.8731C29.8137 23.5856 29.7212 24.2932 29.5825 24.8139C29.4691 25.2373 29.246 25.6237 28.9355 25.9341C28.6251 26.2446 28.2382 26.4682 27.8136 26.5827C26.3635 26.9713 20.8519 26.9988 20.0881 27H19.9106C19.5243 27 17.9267 26.9925 16.2516 26.9352L16.0391 26.9278L15.9304 26.9228L15.7166 26.914L15.5028 26.9053C14.1153 26.8443 12.7939 26.7459 12.1851 26.5815C11.7607 26.4671 11.3739 26.2436 11.0635 25.9334C10.753 25.6232 10.5298 25.2371 10.4163 24.8139C10.2775 24.2944 10.185 23.5856 10.1225 22.8731L10.1125 22.7423L10.1025 22.6128C10.0408 21.7687 10.0066 20.9229 10 20.0766L10 19.9234C10.0025 19.6556 10.0125 18.73 10.08 17.7086L10.0888 17.5803L10.0925 17.5155L10.1025 17.386L10.13 17.0621L10.1425 16.9326C10.2025 16.2861 10.2913 15.6582 10.4175 15.1861C10.5309 14.7627 10.754 14.3763 11.0645 14.0659C11.3749 13.7554 11.7618 13.5318 12.1864 13.4173C12.7952 13.2554 14.1165 13.1557 15.5041 13.0934L15.7166 13.0847L15.9316 13.0772L16.0391 13.0735L16.2529 13.0648C17.4426 13.0266 18.6328 13.0054 19.8231 13.0012H20.0644V13ZM18.0005 16.9986V23.0002L23.1971 20.0006L18.0005 16.9986Z" fill="black"/>
</svg>
