<svg width="51" height="51" viewBox="0 0 51 51" fill="none" xmlns="http://www.w3.org/2000/svg">
<mask id="mask0_1253_1948" style="mask-type:alpha" maskUnits="userSpaceOnUse" x="0" y="0" width="51" height="51">
<path d="M50 25.5C50 39.031 39.031 50 25.5 50C11.969 50 1 39.031 1 25.5C1 11.969 11.969 1 25.5 1C39.031 1 50 11.969 50 25.5Z" fill="white" stroke="white" stroke-width="2"/>
</mask>
<g mask="url(#mask0_1253_1948)">
<path d="M50 25.5C50 39.031 39.031 50 25.5 50C11.969 50 1 39.031 1 25.5C1 11.969 11.969 1 25.5 1C39.031 1 50 11.969 50 25.5Z" stroke="#202020" stroke-width="2"/>
<path d="M25 19C26.1 19 27 19.9 27 21C27 22.1 26.1 23 25 23C23.9 23 23 22.1 23 21C23 19.9 23.9 19 25 19ZM25 29C27.7 29 30.8 30.29 31 31H19C19.23 30.28 22.31 29 25 29ZM25 17C22.79 17 21 18.79 21 21C21 23.21 22.79 25 25 25C27.21 25 29 23.21 29 21C29 18.79 27.21 17 25 17ZM25 27C22.33 27 17 28.34 17 31V33H33V31C33 28.34 27.67 27 25 27Z" fill="black"/>
</g>
</svg>
