<svg width="40" height="40" viewBox="0 0 40 40" fill="none" xmlns="http://www.w3.org/2000/svg">
<path fill-rule="evenodd" clip-rule="evenodd" d="M5.71429 0H34.2857C37.4416 0 40 2.55837 40 5.71429V34.2857C40 37.4416 37.4416 40 34.2857 40H5.71429C2.55837 40 0 37.4416 0 34.2857V5.71429C0 2.55837 2.55837 0 5.71429 0Z" fill="#202020"/>
<path d="M27.575 16.25V19.325H19.525V24.8C19.525 25.2 19.5917 25.4917 19.725 25.675C19.8583 25.8583 20.1167 25.95 20.5 25.95C20.8333 25.95 21.1583 25.9 21.475 25.8C21.7917 25.6833 22.075 25.5417 22.325 25.375C22.5917 25.2083 22.8 25.0167 22.95 24.8C23.1167 24.5667 23.2 24.3333 23.2 24.1C23.2 23.9667 23.1417 23.85 23.025 23.75C22.9083 23.6333 22.6833 23.575 22.35 23.575C22.0833 23.575 21.8417 23.6 21.625 23.65L21.175 20.8C21.4917 20.7167 21.85 20.65 22.25 20.6C22.6667 20.55 23.1 20.525 23.55 20.525C24.6167 20.525 25.45 20.7667 26.05 21.25C26.6667 21.7167 26.975 22.425 26.975 23.375C26.975 24.2583 26.7667 25.0583 26.35 25.775C25.95 26.475 25.4083 27.0667 24.725 27.55C24.0417 28.0167 23.275 28.375 22.425 28.625C21.5917 28.875 20.7583 29 19.925 29C19.225 29 18.6333 28.925 18.15 28.775C17.6667 28.625 17.2583 28.4 16.925 28.1C16.7083 27.8833 16.5083 27.6417 16.325 27.375C16.1417 27.0917 16 26.725 15.9 26.275C15.8 25.8083 15.75 25.2167 15.75 24.5V19.325H13.7V16.25H27.575ZM15.775 10.225C16.3417 10.225 16.8417 10.2917 17.275 10.425C17.7083 10.5583 18.075 10.7583 18.375 11.025C18.775 11.3583 19.0667 11.8083 19.25 12.375C19.4333 12.925 19.525 13.6917 19.525 14.675V16.325H15.75V14.85C15.75 14.5 15.7167 14.2083 15.65 13.975C15.5833 13.7417 15.4583 13.575 15.275 13.475C15.1083 13.3583 14.8667 13.3 14.55 13.3C14.35 13.3 14.1417 13.325 13.925 13.375C13.7083 13.425 13.4833 13.4917 13.25 13.575L12.2 10.925C12.85 10.675 13.4417 10.5 13.975 10.4C14.525 10.2833 15.125 10.225 15.775 10.225Z" fill="white"/>
</svg>
