<svg width="32" height="32" viewBox="0 0 32 32" fill="none" xmlns="http://www.w3.org/2000/svg">
<path d="M20.7335 17.3333C21.7335 17.3333 22.6135 16.7867 23.0668 15.96L27.8402 7.30666C28.3335 6.42666 27.6935 5.33332 26.6802 5.33332H6.94683L5.6935 2.66666H1.3335V5.33332H4.00016L8.80016 15.4533L7.00016 18.7067C6.02683 20.4933 7.30683 22.6667 9.3335 22.6667H25.3335V20H9.3335L10.8002 17.3333H20.7335ZM8.2135 7.99999H24.4135L20.7335 14.6667H11.3735L8.2135 7.99999ZM9.3335 24C7.86683 24 6.68016 25.2 6.68016 26.6667C6.68016 28.1333 7.86683 29.3333 9.3335 29.3333C10.8002 29.3333 12.0002 28.1333 12.0002 26.6667C12.0002 25.2 10.8002 24 9.3335 24ZM22.6668 24C21.2002 24 20.0135 25.2 20.0135 26.6667C20.0135 28.1333 21.2002 29.3333 22.6668 29.3333C24.1335 29.3333 25.3335 28.1333 25.3335 26.6667C25.3335 25.2 24.1335 24 22.6668 24Z" fill="black"/>
</svg>
